<?xml version="1.0" encoding="utf-8"?>
<!-- Generator: Adobe Illustrator 27.9.0, SVG Export Plug-In . SVG Version: 6.00 Build 0)  -->
<svg version="1.1" id="Layer_1" xmlns="http://www.w3.org/2000/svg" xmlns:xlink="http://www.w3.org/1999/xlink" x="0px" y="0px"
	 viewBox="0 0 141 141" style="enable-background:new 0 0 141 141;" xml:space="preserve">
<style type="text/css">
	.st0{clip-path:url(#SVGID_00000046301416128191680960000016608645014236365700_);}
	.st1{fill:url(#SVGID_00000179617678521764802700000001967036977538786210_);}
	.st2{fill:url(#SVGID_00000121252889495020260470000001339017485755200931_);}
	.st3{fill:url(#SVGID_00000082365220144478889100000009243880260258709641_);}
	.st4{fill:url(#SVGID_00000017518292316608116990000000637439707961987224_);}
	.st5{fill:#3D3D3B;}
</style>
<g>
	<defs>
		<rect id="SVGID_1_" y="19.5" width="140.6" height="101.7"/>
	</defs>
	<clipPath id="SVGID_00000055665006781528261730000006508862966500864418_">
		<use xlink:href="#SVGID_1_"  style="overflow:visible;"/>
	</clipPath>
	<g style="clip-path:url(#SVGID_00000055665006781528261730000006508862966500864418_);">
		
			<linearGradient id="SVGID_00000041260318062300659250000005796622872609170587_" gradientUnits="userSpaceOnUse" x1="52.7304" y1="106.8799" x2="45.8276" y2="97.8743" gradientTransform="matrix(1 0 0 -1 0 140.89)">
			<stop  offset="0" style="stop-color:#E6E6E6"/>
			<stop  offset="1" style="stop-color:#B3B3B3"/>
		</linearGradient>
		<path style="fill:url(#SVGID_00000041260318062300659250000005796622872609170587_);" d="M56.3,58.9C43.7,47.3,35.2,31.7,24.1,31
			c16.4-12.7,40,5.1,49.5,13.4C76.2,46.8,61,63.1,56.3,58.9z"/>
		
			<linearGradient id="SVGID_00000129901276306749652090000012496491674941226154_" gradientUnits="userSpaceOnUse" x1="41.8685" y1="100.8027" x2="35.0532" y2="90.9965" gradientTransform="matrix(1 0 0 -1 0 140.89)">
			<stop  offset="0" style="stop-color:#16B9ED"/>
			<stop  offset="1" style="stop-color:#0F80C3"/>
		</linearGradient>
		<path style="fill:url(#SVGID_00000129901276306749652090000012496491674941226154_);" d="M57.2,69.3C35.4,61.7,23.9,36,9.1,36
			c20-16.9,54.6,13.8,54.6,13.8L57.2,69.3z"/>
		
			<linearGradient id="SVGID_00000148622348164946774140000007223892931003492782_" gradientUnits="userSpaceOnUse" x1="86.8253" y1="127.8054" x2="50.9337" y2="86.9266" gradientTransform="matrix(1 0 0 -1 0 140.89)">
			<stop  offset="0" style="stop-color:#189CD9"/>
			<stop  offset="1" style="stop-color:#0A5DA8"/>
		</linearGradient>
		<path style="fill:url(#SVGID_00000148622348164946774140000007223892931003492782_);" d="M53.2,48.6c-7.4,0.9-14.9-3.1-22.2-7.1
			c16.3,17.8,36.1,25.6,52.4,10.8c8.8-13.1,13.2-28.8,20.7-29.6C86.2,8.6,75.2,46,53.2,48.6z"/>
		
			<linearGradient id="SVGID_00000067925571729730325930000001096175910219142018_" gradientUnits="userSpaceOnUse" x1="54.5117" y1="109.9016" x2="28.3867" y2="80.162" gradientTransform="matrix(1 0 0 -1 0 140.89)">
			<stop  offset="0" style="stop-color:#E65014"/>
			<stop  offset="1" style="stop-color:#A71A17"/>
		</linearGradient>
		<path style="fill:url(#SVGID_00000067925571729730325930000001096175910219142018_);" d="M57.7,69.9c12-1.4,19.8-9,25.6-17.6
			C67,67.1,51.5,54.4,30.9,41.5c-5.7-3.1-11.4-6.3-17.1-7.2c-2.6-0.3-5.2-0.2-7.7,0.4c-1.9,0.6-3.7,1.5-5.3,2.7
			c-0.3,0.2-0.6,0.5-0.7,0.9C0,38.7-0.1,39.1,0,39.4c0.1,0.4,0.3,0.7,0.6,1c0.3,0.3,0.6,0.5,1,0.5C16.8,44.5,30.2,73.1,57.7,69.9z"
			/>
		<path class="st5" d="M65.9,94.4c-0.3,0.8-0.7,1.4-1.4,1.9C63.8,96.7,63,97,62.1,97c-0.6,0-1.2-0.1-1.7-0.3c-0.5-0.2-1-0.6-1.4-1
			c-0.8-0.9-1.2-2.1-1.2-3.3c0-1.2,0.4-2.5,1.2-3.4c0.4-0.4,0.9-0.8,1.4-1c0.6-0.2,1.2-0.3,1.8-0.3c0.8-0.1,1.6,0.1,2.2,0.5
			c0.7,0.4,1.2,1,1.5,1.8l0.1,0.2h2.9l-0.1-0.4c-0.2-1-0.7-1.9-1.4-2.7c-0.7-0.7-1.5-1.3-2.4-1.7c-0.9-0.3-1.8-0.5-2.8-0.5
			c-2,0-3.8,0.7-5.3,2c-0.7,0.7-1.3,1.6-1.7,2.5s-0.6,2-0.5,3c-0.1,1,0.1,2,0.5,3c0.4,0.9,1,1.8,1.7,2.4c1.4,1.3,3.3,2,5.3,2
			c1.5,0,3-0.4,4.3-1.3c0.6-0.5,1.2-1,1.6-1.7c0.4-0.7,0.7-1.4,0.8-2.2l0.1-0.4h-3L65.9,94.4z"/>
		<path class="st5" d="M108.9,92.8c-1-0.1-2.1,0.3-2.9,0.9c-0.4,0.3-0.7,0.8-0.9,1.3s-0.3,1-0.2,1.5c0,0.5,0.1,0.9,0.3,1.3
			c0.2,0.4,0.5,0.8,0.9,1c0.7,0.6,1.7,0.9,2.6,0.9c0.8,0,1.5-0.2,2.2-0.5c0.4-0.2,0.8-0.4,1.1-0.7c0.1,0.2,0.2,0.4,0.3,0.6
			c0.6,0.7,1.5,0.6,2.7,0.4h0.3l-0.1-1.9h-0.8l-0.1-0.1c-0.1-0.1-0.1-0.2-0.1-0.3v-4.4c0-0.6-0.1-1.2-0.3-1.7
			c-0.2-0.5-0.6-1-1.1-1.3c-1-0.6-2.2-1-3.4-0.9c-1.3,0-2.5,0.3-3.7,0.8l-0.2,0.1l0.5,2.3l0.4-0.2c0.4-0.2,0.8-0.4,1.3-0.4
			c0.6-0.1,1.2-0.2,1.8-0.2c0.5,0,1,0.1,1.4,0.4c0.4,0.2,0.5,0.5,0.5,1v0.4C110.6,92.9,109.8,92.7,108.9,92.8z M111.4,95.5V96
			c0,0.2-0.1,0.4-0.3,0.6c-0.1,0.2-0.3,0.3-0.5,0.4c-0.5,0.3-1,0.4-1.6,0.4c-0.4,0-0.7-0.1-1-0.3c-0.1-0.1-0.2-0.2-0.3-0.3
			c-0.1-0.1-0.1-0.3-0.1-0.4c0-0.2,0-0.4,0.1-0.5s0.2-0.3,0.3-0.5c0.2-0.1,0.4-0.3,0.6-0.3c0.2-0.1,0.4-0.1,0.6-0.1h0.1
			C110,94.9,110.8,95.1,111.4,95.5z"/>
		<path class="st5" d="M119.5,95.7h3.9v4h2.9V89.4h-2.9v3.7h-3.9v-3.7h-2.8v10.3h2.8V95.7z"/>
		<path class="st5" d="M94,99.8c0.7,0,1.5-0.2,2.1-0.6c0.8-0.9,1.2-2,1.2-3.2l0.4-3.9h2.6v7.7h2.9V89.4h-8l-0.8,6.4
			c-0.1,1-0.3,1.3-0.4,1.4c-0.1,0.1-0.3,0.3-1.2,0.1l-0.4-0.1l-0.1,2.3h0.3C93,99.6,93.5,99.7,94,99.8z"/>
		<path class="st5" d="M62.9,115.4c0.3-0.2,0.5-0.5,0.6-0.9c0.1-0.3,0.2-0.7,0.2-1c0-0.5-0.1-1-0.3-1.4c-0.2-0.4-0.5-0.7-0.8-0.9
			c-0.3-0.2-0.7-0.4-1.1-0.5c-0.4-0.1-0.7-0.2-1.1-0.2h-5.1v10.3h5.9c0.4,0,0.8-0.1,1.2-0.2c0.4-0.1,0.8-0.3,1.1-0.5
			c0.3-0.2,0.6-0.5,0.8-0.9c0.2-0.4,0.3-0.9,0.3-1.4c0-0.6-0.2-1.2-0.5-1.7C63.5,115.8,63.2,115.6,62.9,115.4z M58,116.7h2.2
			c0.2,0,0.4,0.1,0.7,0.1c0.3,0,0.3,0.1,0.4,0.3c0.1,0.1,0.1,0.3,0.1,0.5c0,0.2,0,0.4-0.1,0.5c-0.1,0.1-0.2,0.2-0.4,0.3
			c-0.2,0.1-0.4,0.1-0.6,0.1H58V116.7z M59.3,114.5H58v-1.6h1.3c1.5,0,1.5,0.6,1.5,0.8C60.8,113.9,60.9,114.5,59.3,114.5z"/>
		<path class="st5" d="M103.4,117c-0.2,0.5-0.5,0.9-0.9,1.1c-0.4,0.3-0.9,0.4-1.4,0.4c-0.3,0-0.7,0-1-0.2c-0.3-0.1-0.6-0.3-0.8-0.5
			c-0.3-0.3-0.5-0.6-0.6-0.9c-0.1-0.3-0.2-0.7-0.2-1.1c0-0.4,0-0.7,0.2-1.1c0.1-0.3,0.3-0.7,0.6-0.9c0.2-0.2,0.5-0.4,0.8-0.5
			c0.3-0.1,0.6-0.2,1-0.2c0.5,0,1,0.1,1.4,0.3c0.2,0.1,0.4,0.2,0.5,0.4c0.1,0.2,0.2,0.4,0.3,0.6l0.1,0.2h2.8l-0.1-0.4
			c-0.3-1.1-0.9-2.1-1.8-2.8c-0.9-0.7-2.1-1-3.2-0.9c-0.9,0-1.8,0.2-2.6,0.6c-0.8,0.4-1.5,1-2,1.8c-0.5,0.9-0.8,1.9-0.8,2.9
			c-0.1,0.7,0.1,1.5,0.3,2.1c0.3,0.7,0.7,1.3,1.3,1.8c1.1,0.9,2.4,1.4,3.8,1.4c1.1,0,2.3-0.3,3.2-1c0.5-0.3,0.9-0.8,1.2-1.3
			c0.3-0.5,0.5-1.1,0.6-1.6l0.1-0.4h-2.8L103.4,117z"/>
		<path class="st5" d="M137.2,98.4c0.6-0.5,1-1.1,1.3-1.8c0.3-0.7,0.4-1.4,0.3-2.2c0-1.1-0.3-2.1-0.8-3c-0.5-0.8-1.2-1.4-2.1-1.8
			c-0.8-0.4-1.7-0.6-2.6-0.5c-1.4,0-2.7,0.5-3.7,1.4c-0.6,0.5-1,1.1-1.3,1.8c-0.3,0.7-0.4,1.4-0.3,2.1c0,0.7,0.1,1.5,0.4,2.2
			c0.3,0.7,0.7,1.3,1.2,1.8c1.1,0.9,2.4,1.4,3.8,1.4c0.7,0,1.4-0.1,2-0.3S136.7,98.8,137.2,98.4z M130.9,94.5c0-0.4,0-0.7,0.1-1.1
			s0.3-0.7,0.6-0.9c0.2-0.2,0.5-0.4,0.8-0.5c0.3-0.1,0.6-0.2,1-0.2h0.1c0.3,0,0.6,0,0.9,0.2c0.3,0.1,0.6,0.3,0.8,0.5
			c0.3,0.3,0.5,0.6,0.6,0.9c0.1,0.3,0.2,0.7,0.2,1.1c0,0.4,0,0.7-0.1,1.1c-0.1,0.3-0.3,0.7-0.6,0.9c-0.2,0.2-0.5,0.4-0.8,0.5
			c-0.3,0.1-0.6,0.2-1,0.2c-0.3,0-0.7,0-1-0.2c-0.3-0.1-0.6-0.3-0.8-0.5c-0.3-0.2-0.5-0.6-0.6-0.9C130.9,95.2,130.9,94.8,130.9,94.5
			z"/>
		<path class="st5" d="M122.1,115.9v-5.3h-2.8V121h1.1l5.6-5.4v5.3h2.8v-10.3h-1.2L122.1,115.9z"/>
		<path class="st5" d="M139.5,110.6l-5.5,5.3v-5.3h-2.8V121h1.1l5.5-5.4v5.3h2.8v-10.3H139.5z"/>
		<path class="st5" d="M114.9,117c-0.2,0.5-0.5,0.9-0.9,1.1c-0.4,0.3-0.9,0.4-1.4,0.4c-0.3,0-0.7,0-1-0.2c-0.3-0.1-0.6-0.3-0.8-0.5
			c-0.3-0.3-0.5-0.6-0.6-0.9c-0.1-0.3-0.2-0.7-0.2-1.1c0-0.4,0-0.7,0.2-1.1c0.1-0.3,0.3-0.7,0.6-0.9c0.2-0.2,0.5-0.4,0.8-0.5
			c0.3-0.1,0.6-0.2,1-0.2c0.5,0,1,0.1,1.4,0.3c0.2,0.1,0.4,0.2,0.5,0.4c0.1,0.2,0.2,0.4,0.3,0.6l0.2,0.1h2.7l-0.1-0.4
			c-0.3-1.1-0.9-2.1-1.8-2.8c-0.9-0.7-2.1-1-3.2-0.9c-0.9,0-1.8,0.2-2.6,0.6c-0.8,0.4-1.5,1-2,1.8c-0.5,0.9-0.8,1.9-0.8,2.9
			c-0.1,0.7,0.1,1.5,0.3,2.1c0.3,0.7,0.7,1.3,1.3,1.8c1.1,0.9,2.4,1.4,3.8,1.4c1.1,0,2.3-0.3,3.2-1c0.5-0.3,0.9-0.8,1.2-1.3
			c0.3-0.5,0.5-1.1,0.6-1.6l0.1-0.4H115L114.9,117z"/>
		<path class="st5" d="M72.2,99.7h6.1v2.2h2.6l0.1-4.6h-1.3v-7.9h-7.4l-0.9,5.1v0.3c-0.1,0.7-0.2,1.2-0.2,1.5
			c-0.1,0.3-0.2,0.5-0.4,0.7c-0.1,0.1-0.2,0.2-0.3,0.2c-0.1,0.1-0.3,0.1-0.4,0.1h-0.6l0.1,4.6h2.7v-2.2H72.2z M76.8,91.9v5.4h-3.1
			c0-0.1,0.1-0.2,0.1-0.3c0.1-0.4,0.2-0.9,0.4-1.7l0.4-3.3L76.8,91.9L76.8,91.9z"/>
		<path class="st5" d="M77.7,106.3h-6.1v14.6h3v-4.2h3.1c0.7,0,1.4-0.1,2.1-0.3c0.7-0.3,1.2-0.7,1.7-1.2c0.5-0.5,0.8-1.1,1.1-1.7
			c0.2-0.6,0.3-1.3,0.3-2c0-1.4-0.5-2.7-1.4-3.7c-0.5-0.5-1.1-0.9-1.7-1.2C79.1,106.3,78.4,106.2,77.7,106.3z M79.4,113.3
			c-0.2,0.2-0.5,0.4-0.8,0.6c-0.3,0.1-0.6,0.2-0.9,0.1h-3.1v-5h3.1c0.3,0,0.6,0,0.9,0.2c0.3,0.1,0.6,0.3,0.8,0.5
			c0.4,0.5,0.6,1.1,0.6,1.8C80,112.1,79.8,112.8,79.4,113.3z"/>
		<path class="st5" d="M91.2,99l0.3-0.1l-0.4-2.3l-0.4,0.2c-1.1,0.4-2.2,0.6-3.3,0.6c-0.4,0-0.7,0-1.1-0.1c-0.3-0.1-0.7-0.3-0.9-0.6
			c-0.2-0.2-0.4-0.4-0.5-0.6c-0.1-0.2-0.2-0.5-0.2-0.8h7l0.1-0.3c0.2-0.7,0.2-1.5,0.1-2.2c-0.1-0.7-0.4-1.4-0.8-2
			c-0.5-0.6-1.1-1-1.7-1.3c-0.7-0.3-1.4-0.4-2.2-0.3c-1.4,0-2.7,0.5-3.7,1.4c-0.5,0.5-0.9,1.1-1.2,1.7c-0.3,0.7-0.4,1.4-0.4,2.1
			c-0.1,0.8,0,1.5,0.3,2.2c0.3,0.7,0.7,1.3,1.3,1.9c1.1,1,2.5,1.5,4,1.5C88.8,99.8,90,99.5,91.2,99z M87,91.6c0.6,0,1.1,0.2,1.6,0.5
			c0.1,0.1,0.3,0.3,0.4,0.4c0.1,0.2,0.1,0.4,0.1,0.6h-4.4C85,92,85.8,91.6,87,91.6z"/>
		<path class="st5" d="M91.6,111c-0.8-0.4-1.7-0.6-2.6-0.5c-1.4,0-2.7,0.5-3.7,1.4c-0.6,0.5-1,1.1-1.3,1.8c-0.3,0.7-0.4,1.4-0.3,2.1
			c0,0.7,0.1,1.5,0.4,2.2c0.3,0.7,0.7,1.3,1.2,1.8c1.1,0.9,2.4,1.5,3.9,1.4c1.4,0,2.7-0.5,3.8-1.4c0.6-0.5,1-1.1,1.3-1.8
			c0.3-0.7,0.4-1.4,0.3-2.2c0-1.1-0.3-2.1-0.8-3C93.3,112,92.5,111.3,91.6,111z M91.6,115.8c0,0.4,0,0.7-0.1,1.1
			c-0.1,0.3-0.3,0.7-0.6,0.9c-0.2,0.2-0.5,0.4-0.8,0.5c-0.3,0.1-0.6,0.2-1,0.2c-0.3,0-0.7,0-1-0.2c-0.3-0.1-0.6-0.3-0.8-0.5
			c-0.3-0.3-0.5-0.6-0.6-0.9c-0.1-0.3-0.2-0.7-0.2-1.1c0-0.4,0-0.7,0.1-1.1c0.1-0.3,0.3-0.7,0.6-0.9c0.2-0.2,0.5-0.4,0.8-0.5
			c0.3-0.1,0.6-0.2,1-0.2h0.1c0.3,0,0.6,0,0.9,0.2c0.3,0.1,0.6,0.3,0.8,0.5c0.3,0.2,0.5,0.5,0.7,0.9C91.6,115,91.7,115.4,91.6,115.8
			z"/>
	</g>
</g>
</svg>
